<svg width="431" height="260" viewBox="0 0 431 260" fill="none" xmlns="http://www.w3.org/2000/svg">
<g filter="url(#filter0_d_286_2243)">
<path d="M0.204102 57C0.204102 29.3857 22.5899 7 50.2041 7H380.204C407.818 7 430.204 29.3806 430.204 56.9949C430.204 87.0814 430.204 122.061 430.204 135.392C430.204 160.669 346.704 126.565 301.204 154.651C258.951 180.732 257.875 204.363 223.704 219.248C181.317 237.712 119.204 187.952 86.7041 236.501C54.2041 285.049 0.204102 243.322 0.204102 243.322V57Z" fill="#61B6CB"/>
<path d="M50.2041 9.5H380.204C406.438 9.5 427.704 30.7619 427.704 56.9951V135.392C427.704 137.703 426.829 139.147 425.165 140.229C423.308 141.435 420.36 142.239 416.214 142.626C407.935 143.398 396.354 142.412 382.94 141.475C369.659 140.547 354.788 139.692 340.354 140.855C326.378 141.983 312.623 145.014 301.008 151.85L299.891 152.523C278.438 165.766 267.406 178.427 257.557 189.485C248.079 200.127 239.796 209.162 224.234 216.273L222.706 216.956C212.69 221.319 201.368 221.712 189.251 220.421C177.026 219.118 164.599 216.199 151.899 214.126C139.396 212.085 126.864 210.92 115.319 213.479C103.646 216.067 93.1157 222.43 84.627 235.11C76.7932 246.812 67.7821 252.923 58.7529 255.655C49.6766 258.402 40.3602 257.8 31.8691 255.69C23.378 253.581 15.8285 249.991 10.3809 246.907C7.66388 245.369 5.48575 243.966 3.99316 242.952C3.47971 242.603 3.04831 242.299 2.7041 242.054V57C2.7041 30.7665 23.9706 9.5 50.2041 9.5Z" stroke="white" stroke-width="5" stroke-linejoin="round"/>
</g>
<path d="M0.204102 50C0.204102 22.3857 22.5899 0 50.2041 0H380.204C407.818 0 430.204 22.3806 430.204 49.9949C430.204 80.0814 430.204 115.061 430.204 128.392C430.204 153.669 346.704 119.565 301.204 147.651C258.951 173.732 257.875 197.363 223.704 212.248C181.317 230.712 119.204 180.952 86.7041 229.501C54.2041 278.049 0.204102 236.322 0.204102 236.322V50Z" fill="#5FA8D3"/>
<defs>
<filter id="filter0_d_286_2243" x="0.204102" y="-1" width="438" height="261" filterUnits="userSpaceOnUse" color-interpolation-filters="sRGB">
<feFlood flood-opacity="0" result="BackgroundImageFix"/>
<feColorMatrix in="SourceAlpha" type="matrix" values="0 0 0 0 0 0 0 0 0 0 0 0 0 0 0 0 0 0 127 0" result="hardAlpha"/>
<feOffset dx="4" dy="-4"/>
<feGaussianBlur stdDeviation="2"/>
<feComposite in2="hardAlpha" operator="out"/>
<feColorMatrix type="matrix" values="0 0 0 0 0 0 0 0 0 0 0 0 0 0 0 0 0 0 0.6 0"/>
<feBlend mode="normal" in2="BackgroundImageFix" result="effect1_dropShadow_286_2243"/>
<feBlend mode="normal" in="SourceGraphic" in2="effect1_dropShadow_286_2243" result="shape"/>
</filter>
</defs>
</svg>
