<svg width="431" height="260" viewBox="0 0 431 260" fill="none" xmlns="http://www.w3.org/2000/svg">
<g filter="url(#filter0_d_71_10260)">
<path d="M0.204102 57C0.204102 29.3857 22.5899 7 50.2041 7H380.204C407.818 7 430.204 29.3806 430.204 56.9949C430.204 87.0814 430.204 122.061 430.204 135.392C430.204 160.669 346.704 126.565 301.204 154.651C258.951 180.732 257.875 204.363 223.704 219.248C181.317 237.712 119.204 187.952 86.7041 236.501C54.2041 285.049 0.204102 243.322 0.204102 243.322V57Z" fill="#61B6CB"/>
<path d="M3.99269 242.952C3.47968 242.603 3.04816 242.301 2.7041 242.056V57C2.7041 30.7664 23.9706 9.5 50.2041 9.5H380.204C406.438 9.5 427.704 30.7617 427.704 56.9949V57.1712V57.3477V57.5242V57.7009V57.8777V58.0546V58.2316V58.4087V58.5859V58.7632V58.9406V59.118V59.2956V59.4733V59.6511V59.829V60.007V60.185V60.3632V60.5415V60.7198V60.8982V61.0767V61.2553V61.434V61.6127V61.7916V61.9705V62.1495V62.3286V62.5077V62.687V62.8663V63.0456V63.2251V63.4046V63.5842V63.7638V63.9436V64.1233V64.3032V64.4831V64.6631V64.8431V65.0232V65.2034V65.3836V65.5639V65.7442V65.9246V66.105V66.2855V66.466V66.6466V66.8272V67.0079V67.1886V67.3694V67.5502V67.7311V67.9119V68.0929V68.2738V68.4549V68.6359V68.817V68.9981V69.1792V69.3604V69.5416V69.7229V69.9041V70.0854V70.2667V70.4481V70.6294V70.8108V70.9922V71.1736V71.3551V71.5365V71.718V71.8995V72.081V72.2625V72.4441V72.6256V72.8071V72.9887V73.1703V73.3518V73.5334V73.715V73.8965V74.0781V74.2597V74.4413V74.6228V74.8044V74.9859V75.1675V75.349V75.5306V75.7121V75.8936V76.0751V76.2566V76.4381V76.6195V76.801V76.9824V77.1638V77.3452V77.5265V77.7079V77.8892V78.0705V78.2517V78.4329V78.6141V78.7953V78.9765V79.1576V79.3386V79.5197V79.7007V79.8816V80.0626V80.2434V80.4243V80.6051V80.7858V80.9666V81.1472V81.3278V81.5084V81.6889V81.8694V82.0498V82.2302V82.4105V82.5908V82.771V82.9511V83.1312V83.3112V83.4912V83.6711V83.8509V84.0307V84.2104V84.39V84.5696V84.7491V84.9285V85.1079V85.2872V85.4664V85.6455V85.8246V86.0036V86.1825V86.3613V86.54V86.7187V86.8973V87.0758V87.2542V87.4325V87.6107V87.7888V87.9669V88.1448V88.3227V88.5005V88.6781V88.8557V89.0332V89.2106V89.3878V89.565V89.7421V89.9191V90.0959V90.2727V90.4493V90.6259V90.8023V90.9786V91.1548V91.3309V91.5069V91.6828V91.8585V92.0341V92.2097V92.385V92.5603V92.7355V92.9105V93.0854V93.2601V93.4348V93.6093V93.7837V93.9579V94.132V94.306V94.4799V94.6536V94.8272V95.0006V95.1739V95.3471V95.5201V95.6929V95.8657V96.0383V96.2107V96.383V96.5551V96.7271V96.8989V97.0706V97.2422V97.4135V97.5848V97.7558V97.9267V98.0975V98.2681V98.4385V98.6087V98.7788V98.9488V99.1185V99.2881V99.4575V99.6268V99.7959V99.9648V100.134V100.302V100.47V100.639V100.807V100.975V101.142V101.31V101.477V101.644V101.811V101.978V102.144V102.311V102.477V102.643V102.809V102.974V103.14V103.305V103.47V103.635V103.799V103.964V104.128V104.292V104.456V104.619V104.783V104.946V105.109V105.272V105.434V105.596V105.759V105.92V106.082V106.244V106.405V106.566V106.727V106.887V107.048V107.208V107.368V107.527V107.687V107.846V108.005V108.164V108.322V108.481V108.639V108.796V108.954V109.111V109.268V109.425V109.582V109.738V109.894V110.05V110.206V110.361V110.516V110.671V110.826V110.98V111.134V111.288V111.442V111.595V111.748V111.901V112.054V112.206V112.358V112.51V112.661V112.813V112.964V113.114V113.265V113.415V113.565V113.714V113.864V114.013V114.162V114.31V114.458V114.606V114.754V114.901V115.048V115.195V115.342V115.488V115.634V115.779V115.925V116.07V116.215V116.359V116.503V116.647V116.791V116.934V117.077V117.22V117.362V117.504V117.646V117.787V117.928V118.069V118.21V118.35V118.49V118.629V118.769V118.907V119.046V119.184V119.322V119.46V119.597V119.734V119.871V120.007V120.143V120.279V120.414V120.549V120.684V120.818V120.952V121.086V121.219V121.352V121.485V121.617V121.749V121.881V122.012V122.143V122.274V122.404V122.534V122.664V122.793V122.922V123.05V123.178V123.306V123.434V123.561V123.687V123.814V123.94V124.065V124.191V124.315V124.44V124.564V124.688V124.811V124.934V125.057V125.179V125.301V125.423V125.544V125.665V125.785V125.905V126.025V126.144V126.263V126.381V126.499V126.617V126.735V126.851V126.968V127.084V127.2V127.315V127.43V127.545V127.659V127.773V127.886V127.999V128.111V128.224V128.335V128.447V128.558V128.668V128.778V128.888V128.997V129.106V129.214V129.322V129.43V129.537V129.644V129.75V129.856V129.962V130.067V130.171V130.276V130.379V130.483V130.586V130.688V130.79V130.892V130.993V131.094V131.194V131.294V131.393V131.492V131.591V131.689V131.787V131.884V131.981V132.077V132.173V132.268V132.363V132.458V132.552V132.645V132.738V132.831V132.923V133.015V133.106V133.197V133.288V133.377V133.467V133.556V133.644V133.732V133.82V133.907V133.994V134.08V134.165V134.25V134.335V134.419V134.503V134.586V134.669V134.751V134.833V134.914V134.995V135.076V135.155V135.235V135.314V135.392C427.704 137.703 426.829 139.147 425.165 140.229C423.308 141.435 420.36 142.24 416.214 142.626C408.812 143.316 398.77 142.601 387.138 141.771C385.76 141.673 384.361 141.573 382.941 141.474C369.659 140.546 354.788 139.692 340.355 140.856C325.928 142.019 311.736 145.212 299.891 152.523C278.95 165.45 267.938 177.821 258.264 188.69C258.028 188.956 257.792 189.221 257.556 189.485C247.773 200.47 239.263 209.743 222.706 216.956C212.69 221.319 201.368 221.712 189.251 220.42C181.456 219.59 173.58 218.102 165.603 216.596C161.068 215.739 156.502 214.877 151.899 214.126C139.396 212.084 126.864 210.92 115.32 213.479C103.646 216.067 93.1155 222.429 84.6266 235.11C76.7928 246.812 67.7826 252.922 58.7534 255.655C49.6769 258.402 40.3606 257.8 31.8694 255.69C23.3782 253.581 15.8287 249.991 10.381 246.907C7.66365 245.369 5.48531 243.966 3.99269 242.952Z" stroke="white" stroke-width="5" stroke-linejoin="round"/>
</g>
<path d="M0.204102 50C0.204102 22.3857 22.5899 0 50.2041 0H380.204C407.818 0 430.204 22.3806 430.204 49.9949C430.204 80.0814 430.204 115.061 430.204 128.392C430.204 153.669 346.704 119.565 301.204 147.651C258.951 173.732 257.875 197.363 223.704 212.248C181.317 230.712 119.204 180.952 86.7041 229.501C54.2041 278.049 0.204102 236.322 0.204102 236.322V50Z" fill="#5FA8D3"/>
<defs>
<filter id="filter0_d_71_10260" x="0.204102" y="-1" width="438" height="261" filterUnits="userSpaceOnUse" color-interpolation-filters="sRGB">
<feFlood flood-opacity="0" result="BackgroundImageFix"/>
<feColorMatrix in="SourceAlpha" type="matrix" values="0 0 0 0 0 0 0 0 0 0 0 0 0 0 0 0 0 0 127 0" result="hardAlpha"/>
<feOffset dx="4" dy="-4"/>
<feGaussianBlur stdDeviation="2"/>
<feComposite in2="hardAlpha" operator="out"/>
<feColorMatrix type="matrix" values="0 0 0 0 0 0 0 0 0 0 0 0 0 0 0 0 0 0 0.6 0"/>
<feBlend mode="normal" in2="BackgroundImageFix" result="effect1_dropShadow_71_10260"/>
<feBlend mode="normal" in="SourceGraphic" in2="effect1_dropShadow_71_10260" result="shape"/>
</filter>
</defs>
</svg>
